<svg version="1.1" id="Layer_1" xmlns="http://www.w3.org/2000/svg" xmlns:xlink="http://www.w3.org/1999/xlink" x="0px" y="0px"
	 width="100%" viewBox="0 0 566 566" enable-background="new 0 0 566 566" xml:space="preserve">
<path fill="#FFFFFE" opacity="1.000000" stroke="none" 
	d="
M313.000000,567.000000 
	C208.689575,567.000000 104.879158,567.000000 1.034367,567.000000 
	C1.034367,378.397888 1.034367,189.795746 1.034367,1.096813 
	C189.560440,1.096813 378.120941,1.096813 566.840698,1.096813 
	C566.840698,189.666565 566.840698,378.333252 566.840698,567.000000 
	C482.462372,567.000000 397.981171,567.000000 313.000000,567.000000 
M107.119766,65.916977 
	C107.119766,65.916977 107.206245,65.863457 107.092285,65.254372 
	C106.728027,65.169167 106.363762,65.083961 105.318314,64.766762 
	C99.193008,62.268070 94.581100,62.916985 93.093658,66.667717 
	C91.227097,71.374413 89.450981,76.124321 87.844940,80.925529 
	C83.846588,92.878479 80.111610,104.921768 75.948311,116.815887 
	C74.747520,120.246407 73.110939,125.289497 70.533264,126.141479 
	C62.848995,128.681320 54.598736,129.509995 46.568611,131.001877 
	C35.722908,133.016846 24.867197,134.979675 14.035173,137.065567 
	C10.409961,137.763657 8.314225,140.103394 8.042852,143.848541 
	C7.762336,147.719879 8.533295,151.106689 12.506495,152.946213 
	C13.966948,153.622391 15.408228,154.381607 16.748966,155.268234 
	C29.180458,163.489151 41.588055,171.746216 54.366154,180.248901 
	C54.366154,180.248901 54.806000,180.314621 54.931969,180.207748 
	C54.931969,180.207748 54.810745,180.095551 54.913170,180.670883 
	C55.258080,180.837006 55.602989,181.003128 55.948421,181.070358 
	C55.948421,181.070358 55.853127,181.096893 56.278591,181.729584 
	C56.742188,183.421356 57.870468,185.249695 57.555733,186.781555 
	C56.097702,193.878006 54.239056,200.892166 52.158657,208.367615 
	C52.137257,208.923859 52.115860,209.480087 51.902637,210.618591 
	C51.691441,211.396698 51.480244,212.174820 51.021626,213.782242 
	C50.733795,215.354401 50.501514,216.939178 50.147633,218.496323 
	C49.123512,223.002701 48.050495,227.497940 46.383568,232.495087 
	C46.906399,235.388855 47.429230,238.282623 48.075298,241.623245 
	C48.259270,241.912659 48.522552,242.049805 49.363503,242.594772 
	C52.726116,244.488190 55.999962,244.644623 59.042690,242.087601 
	C59.042690,242.087601 59.062943,242.178558 59.613216,242.014511 
	C59.792461,241.686783 59.971706,241.359039 60.760674,240.728027 
	C65.907242,237.336273 70.998779,233.857101 76.214027,230.574432 
	C83.061600,226.264328 89.932610,221.979568 96.954681,217.965820 
	C99.073029,216.755005 101.047531,214.039993 104.270004,216.249451 
	C110.413429,220.461624 116.762947,224.373520 122.899361,228.595459 
	C127.146759,231.517685 131.043518,234.958740 135.346268,237.788925 
	C140.048233,240.881699 144.673203,244.692749 151.629593,242.849106 
	C152.174484,242.312088 152.719376,241.775085 153.012680,241.163193 
	C153.012680,241.163193 153.249374,241.276703 153.915649,240.996384 
	C154.366852,238.198105 155.648987,235.228699 155.114517,232.633423 
	C153.466782,224.632584 151.125275,216.774658 149.103455,208.031479 
	C147.827240,201.351669 146.393326,194.695633 145.379929,187.976181 
	C145.109070,186.180145 145.469482,183.373138 146.655380,182.424454 
	C153.434830,177.001205 160.541901,171.986450 167.555267,166.856918 
	C175.091064,161.345306 182.907227,156.177856 190.109146,150.261444 
	C195.722229,145.650238 195.450607,143.498535 190.425537,137.368195 
	C189.670898,137.132034 188.916260,136.895874 188.011719,136.745575 
	C188.011719,136.745575 188.077469,136.905304 187.811813,136.187149 
	C179.220734,134.623703 170.646408,132.959259 162.033005,131.530365 
	C155.720306,130.483139 149.356323,129.745071 142.540848,128.182861 
	C141.726196,128.103317 140.911194,127.951141 140.096970,127.955276 
	C130.108780,128.005966 130.123810,128.006180 126.492577,118.469185 
	C126.151077,117.572304 125.466309,116.806129 125.063194,115.189873 
	C123.063385,109.602531 121.063576,104.015190 119.245728,98.304665 
	C119.245728,98.304665 119.170906,98.098068 119.097237,97.435913 
	C118.759834,96.909126 118.422432,96.382347 118.057304,95.967239 
	C118.057304,95.967239 118.172134,95.974655 118.102074,95.174370 
	C114.769997,85.735565 111.437912,76.296768 108.107483,66.955605 
	C108.107483,66.955605 108.199783,66.923729 108.063187,66.346756 
	C107.743080,66.170067 107.422981,65.993378 107.119766,65.916977 
M536.936768,444.278534 
	C537.088623,443.943848 537.240540,443.609131 537.391296,443.194122 
	C537.391296,443.194122 537.332520,443.248810 537.936096,442.831146 
	C537.749695,440.144135 537.563354,437.457092 537.377625,434.704956 
	C537.377625,434.704956 537.395630,434.642395 537.276794,434.088959 
	C536.959717,433.933167 536.642578,433.777344 536.392761,433.659546 
	C536.392761,433.659546 536.368896,433.586060 536.146851,432.956818 
	C535.107178,432.586823 534.067505,432.216797 533.029602,431.946381 
	C533.029602,431.946381 533.127075,431.925812 532.823486,431.343719 
	C530.897644,431.276337 528.971802,431.208954 526.614258,430.986359 
	C526.614258,430.986359 526.156677,430.953522 525.749207,430.272156 
	C520.836121,429.894745 515.923096,429.517334 510.303955,428.793610 
	C507.134064,428.182404 503.975281,427.504425 500.791931,426.974182 
	C494.537872,425.932495 488.270172,424.972992 481.984985,423.218842 
	C479.032684,415.055542 476.142670,406.868958 473.105103,398.737488 
	C471.230927,393.720306 469.131836,388.787201 467.100159,383.942169 
	C467.100159,383.942169 467.230347,383.940063 467.145538,383.239960 
	C466.799408,382.441864 466.453278,381.643768 466.079681,380.953766 
	C466.079681,380.953766 466.191223,380.952850 466.098846,380.220825 
	C465.418579,378.756714 464.738312,377.292603 463.835938,375.217438 
	C462.644226,373.959717 461.452515,372.701965 459.692902,371.085083 
	C456.725098,371.703552 453.757324,372.322052 450.362427,373.034729 
	C450.078186,373.189880 449.933075,373.429352 449.309113,374.133209 
	C445.888214,383.801910 442.467316,393.470642 438.645538,403.715576 
	C436.386108,410.462799 434.126678,417.210022 431.948853,423.975128 
	C431.948853,423.975128 431.926392,423.894714 431.505920,424.160278 
	C431.268951,424.398529 431.083557,424.671783 430.099518,425.021484 
	C427.149261,425.351807 424.191742,425.628265 421.250183,426.023285 
	C414.472717,426.933441 407.703003,427.901123 400.109314,428.959686 
	C393.359467,429.928955 386.632446,431.143158 379.851227,431.776428 
	C375.729523,432.161316 373.574188,434.222321 373.651001,437.953674 
	C373.697723,440.223969 374.673553,442.989227 376.207214,444.608551 
	C379.475189,448.059052 383.245209,451.083893 387.049866,453.965881 
	C394.737244,459.789215 402.363892,465.741943 410.444946,470.978790 
	C415.716919,474.395264 417.136780,478.076874 414.275543,483.549103 
	C414.063751,483.954224 414.161194,484.521027 413.867432,485.730072 
	C411.125000,495.636322 408.382568,505.542542 405.166504,516.075256 
	C404.506256,518.470581 403.790100,520.852173 403.199036,523.264404 
	C402.344452,526.751892 403.483551,529.844849 406.604248,531.235779 
	C408.905426,532.261475 412.078461,532.726074 414.399384,531.986145 
	C417.898102,530.870728 421.160950,528.728821 424.227753,526.596985 
	C434.814545,519.237793 445.273010,511.693970 455.699127,504.278198 
	C461.802704,508.341156 467.645721,512.230652 473.807465,516.666931 
	C474.192505,516.831421 474.577515,516.995850 474.948273,517.059692 
	C474.948273,517.059692 474.853821,517.097412 475.137726,517.644287 
	C475.691986,517.892761 476.246277,518.141174 476.855713,518.211182 
	C476.855713,518.211182 476.670227,518.232727 476.894714,518.753540 
	C477.238953,518.901062 477.583191,519.048584 477.927490,519.087891 
	C477.927490,519.087891 477.825073,519.122986 478.109161,519.660400 
	C478.649414,519.919983 479.189667,520.179565 479.813934,520.291077 
	C479.813934,520.291077 479.644073,520.302368 479.878082,520.811035 
	C480.223206,520.945618 480.568359,521.080261 480.918610,521.101746 
	C480.918610,521.101746 480.811066,521.137024 481.098938,521.659424 
	C481.617920,521.932068 482.136932,522.204651 482.768463,522.398071 
	C482.768463,522.398071 482.635803,522.361328 482.871704,522.858887 
	C483.216187,522.983704 483.560669,523.108582 483.910248,523.113464 
	C483.910248,523.113464 483.796967,523.153198 484.072906,523.686646 
	C484.602081,523.948975 485.131256,524.211243 485.751038,524.528687 
	C485.751038,524.528687 485.645782,524.515442 486.009125,524.986511 
	C486.854248,525.491089 487.699371,525.995605 488.637390,526.480286 
	C488.637390,526.480286 488.629822,526.574951 488.986694,527.003662 
	C489.637909,527.373535 490.289124,527.743469 490.969116,528.028015 
	C490.969116,528.028015 490.888214,528.067688 491.213379,528.629333 
	C492.290680,529.256104 493.367950,529.882935 494.566284,530.552673 
	C494.566284,530.552673 494.654480,530.645996 495.087891,531.129822 
	C501.525452,535.291992 504.474426,535.135742 508.454041,530.326965 
	C508.454041,530.326965 508.456726,530.232300 509.024628,529.764221 
	C511.711670,524.055481 508.260132,519.169861 506.951050,513.214844 
	C504.999634,506.246094 502.940765,499.305115 501.130493,492.299866 
	C499.660309,486.610596 498.488342,480.844208 497.093719,475.084686 
	C497.093719,475.084686 497.111664,475.177399 497.673615,475.011383 
	C498.247589,474.515076 498.821564,474.018799 499.463531,473.449097 
	C499.463531,473.449097 499.563538,473.450073 499.866455,473.337463 
	C499.866455,473.337463 500.025085,473.055878 500.671051,472.844086 
	C512.474915,463.575806 524.278748,454.307526 536.324402,444.956757 
	C536.324402,444.956757 536.423279,444.721069 536.485474,444.535461 
	C536.485474,444.535461 536.379700,444.370697 536.936768,444.278534 
M284.027161,543.586243 
	C284.344971,543.744568 284.662811,543.902832 284.988983,543.997986 
	C284.988983,543.997986 284.937164,544.034973 285.447021,544.615967 
	C290.647766,546.843994 295.660034,547.292114 300.777130,542.815918 
	C301.599335,541.586243 302.421539,540.356567 303.790192,538.664551 
	C304.495697,536.631470 305.301544,534.626953 305.891510,532.560913 
	C314.304382,503.100433 322.707916,473.637238 331.048401,444.156219 
	C331.892548,441.172363 332.314026,438.068939 333.034058,434.597443 
	C333.034058,434.597443 333.066467,434.162903 333.712860,433.813660 
	C338.948853,415.688446 344.184845,397.563232 349.427246,379.273193 
	C349.427246,379.273193 349.281464,379.195984 349.809784,378.895966 
	C349.883850,378.292023 349.957886,377.688110 350.533081,376.538025 
	C352.112885,371.055176 353.692719,365.572296 355.678467,359.939575 
	C355.915375,359.743561 356.042511,359.492035 356.792572,358.924652 
	C357.243347,358.708984 357.672882,358.408844 358.147858,358.289612 
	C414.247803,344.204346 470.359161,330.164246 526.442627,316.013641 
	C532.459290,314.495575 538.314636,312.338104 544.426819,310.495117 
	C544.426819,310.495117 544.590454,310.413300 545.182129,310.262268 
	C546.259399,309.042297 547.336670,307.822357 548.503235,306.427521 
	C548.503235,306.427521 548.470032,306.234009 549.057312,305.915283 
	C551.164001,301.754578 551.577881,297.675568 548.503723,293.582977 
	C548.503723,293.582977 548.426086,293.413635 548.283020,292.810181 
	C544.499146,286.768768 537.817261,286.841980 531.315063,284.783112 
	C530.699280,284.539612 530.101807,284.223267 529.465088,284.062958 
	C488.370911,273.719421 447.286438,263.336548 406.165192,253.101456 
	C398.190399,251.116516 390.071075,249.712387 381.591858,247.960663 
	C381.591858,247.960663 381.158783,247.933945 380.792847,247.279953 
	C372.867096,245.239548 364.941345,243.199142 356.565704,240.852112 
	C356.127960,240.540146 355.690247,240.228195 355.019531,239.181839 
	C349.678925,221.307449 344.323242,203.437546 339.001831,185.557449 
	C333.350769,166.569763 327.732239,147.572403 322.154327,128.258682 
	C322.154327,128.258682 321.964325,127.994743 321.964111,127.212700 
	C320.003967,121.045876 318.043823,114.879051 316.125488,108.341431 
	C316.125488,108.341431 315.983948,107.996170 316.057343,107.192444 
	C313.239258,97.172005 310.511139,87.124954 307.560486,77.143707 
	C306.311981,72.920357 304.595490,68.835320 303.043274,64.090912 
	C302.390137,63.385509 301.736969,62.680103 300.724365,61.366394 
	C295.179871,57.548054 289.568848,56.376713 283.247406,61.131779 
	C282.477356,62.022251 281.707306,62.912727 280.341339,64.222809 
	C279.584473,66.057899 278.636200,67.838745 278.098480,69.735977 
	C262.018829,126.472649 245.979752,183.220825 230.001495,239.985382 
	C230.001495,239.985382 229.961960,239.928040 229.494858,240.270584 
	C228.963913,240.829636 228.432983,241.388687 227.974457,241.975174 
	C227.974457,241.975174 227.970047,241.897842 227.210205,241.955109 
	C225.102280,242.619583 222.994370,243.284058 220.142227,243.947174 
	C217.118225,244.918488 214.094208,245.889816 210.647537,246.267365 
	C175.430801,254.914124 140.214066,263.560883 104.310806,272.200897 
	C103.213142,272.520386 102.115479,272.839874 100.352409,273.102478 
	C98.875000,273.529572 97.397591,273.956665 95.090805,274.604889 
	C78.856865,278.601929 62.607586,282.538666 46.404484,286.657013 
	C43.781532,287.323669 41.363609,288.796997 38.956753,289.940460 
	C38.956753,289.940460 38.894516,289.844666 38.260075,290.127106 
	C32.475788,296.159912 32.025288,302.173706 37.085514,308.752960 
	C37.650455,309.191193 38.215397,309.629425 39.200634,310.664520 
	C47.867279,313.147125 56.486080,315.816925 65.216843,318.048706 
	C71.382874,319.624908 77.700684,320.607300 84.588745,321.980621 
	C85.229897,322.050629 85.871048,322.120636 86.698982,322.318420 
	C86.698982,322.318420 86.833298,322.500580 86.775726,323.137878 
	C87.526405,323.388397 88.277084,323.638916 89.743584,324.145081 
	C127.164108,333.363220 164.584641,342.581360 202.766006,352.007324 
	C203.789932,352.126007 204.813843,352.244720 205.934616,352.298523 
	C205.934616,352.298523 205.866928,352.203583 206.212418,352.856964 
	C212.278244,354.368530 218.326385,355.956848 224.417160,357.360107 
	C227.591446,358.091461 229.561813,359.501282 230.353851,362.983978 
	C231.659180,368.723724 233.545380,374.331329 235.201294,380.758209 
	C240.721161,399.994476 246.241028,419.230743 251.798035,439.230103 
	C255.446320,452.200043 259.094604,465.169952 262.852966,478.814911 
	C263.218658,479.872009 263.584351,480.929108 263.954834,482.507019 
	C264.011566,482.671082 264.068268,482.835144 264.082397,483.777557 
	C267.400543,495.716064 270.592102,507.691772 274.085266,519.578857 
	C276.117645,526.495056 278.633636,533.269165 280.966766,540.032593 
	C280.966766,540.032593 280.884766,540.039734 281.047333,540.567017 
	C281.338806,540.771729 281.630249,540.976501 281.893127,541.075500 
	C281.893127,541.075500 281.801239,541.135071 282.010803,541.708130 
	C282.631805,542.202820 283.252808,542.697449 283.927826,543.101379 
	C283.927826,543.101379 283.824707,543.078308 284.027161,543.586243 
M59.933784,474.919342 
	C59.933784,474.919342 59.900642,474.827057 59.300850,475.011047 
	C58.496170,475.663239 57.691490,476.315430 56.305817,477.136261 
	C55.519646,478.031952 54.733475,478.927643 53.352699,480.236725 
	C50.025040,485.879730 49.031036,491.584473 52.952953,498.079163 
	C55.605701,500.108643 58.258450,502.138123 61.529926,504.717041 
	C65.329567,504.414429 69.129204,504.111816 73.589737,503.694183 
	C74.948219,502.735321 76.369133,501.853180 77.655907,500.806213 
	C100.883514,481.907196 124.141403,463.044861 147.285980,444.044586 
	C156.002762,436.888672 164.449112,429.403351 173.527878,421.731354 
	C173.758408,421.177124 173.988937,420.622894 174.105362,420.076202 
	C174.105362,420.076202 174.152252,420.180511 174.807068,419.762665 
	C177.010330,415.084991 176.687256,410.755188 172.902496,406.425812 
	C172.716751,406.131439 172.449905,405.979767 171.686813,405.358093 
	C166.862061,402.210114 161.985291,401.667175 156.362228,405.210938 
	C147.782806,411.206818 139.115540,417.081512 130.640793,423.221863 
	C107.371346,440.081665 84.182739,457.053040 60.460350,474.099548 
	C60.253529,474.363373 60.046703,474.627228 59.933784,474.919342 
M367.841522,122.671906 
	C366.396576,127.596336 364.326355,132.438431 363.664398,137.465958 
	C362.830750,143.797272 371.957397,149.471130 377.355316,146.059586 
	C379.988708,144.395233 382.318085,141.613617 383.758057,138.810196 
	C389.225952,128.165253 394.321259,117.327148 399.465973,106.518486 
	C404.103333,96.775703 408.768494,87.041779 413.160309,77.187576 
	C419.609528,62.717087 426.060699,48.238670 432.045532,33.573643 
	C435.151245,25.963459 428.278839,15.155955 420.216156,15.317305 
	C415.669037,15.408300 409.839386,15.792099 407.196533,20.654470 
	C404.579102,25.470118 403.057556,30.881413 400.435364,36.376614 
	C398.002563,42.909771 395.569763,49.442928 393.001343,56.758575 
	C387.352539,71.849548 381.703735,86.940529 375.437256,102.379852 
	C372.994598,108.912643 370.551941,115.445435 367.841522,122.671906 
M517.443359,133.917297 
	C511.947449,133.567703 507.102844,135.077499 502.775787,138.586304 
	C498.567749,141.998627 494.238190,145.277817 489.807739,148.396286 
	C468.398560,163.465439 446.897980,178.405121 425.532318,193.535461 
	C421.852600,196.141281 421.049438,200.289307 422.288086,204.478455 
	C423.492462,208.551697 426.892914,210.781021 430.852661,210.744827 
	C433.965515,210.716400 437.380737,209.703568 440.113678,208.158646 
	C451.111938,201.941345 461.788147,195.154022 472.790314,188.944000 
	C485.213562,181.931885 497.892792,175.374710 510.385895,168.484085 
	C513.783752,166.610016 516.651672,163.415710 520.223083,162.297424 
	C526.049927,160.472961 529.379333,156.998856 531.062439,151.380615 
	C533.668701,142.680756 527.312988,133.908356 517.443359,133.917297 
z"/>
<path fill="#FFCC23" opacity="1.000000" stroke="none" 
	d="
M315.983948,107.996170 
	C315.983948,107.996170 316.125488,108.341431 316.079010,108.967697 
	C317.099579,114.184196 318.030487,118.812737 319.304901,123.344673 
	C319.773773,125.012115 321.054108,126.451393 321.964325,127.994751 
	C321.964325,127.994743 322.154327,128.258682 322.102020,128.892822 
	C323.384430,135.397125 324.552094,141.311722 326.097748,147.125824 
	C327.880493,153.831665 330.120728,160.415207 331.938171,167.112701 
	C334.430695,176.298187 336.525391,185.594101 339.130524,194.745926 
	C342.595490,206.918365 346.229706,219.049088 350.146240,231.082199 
	C351.175903,234.245728 353.514832,236.983139 355.252502,239.916229 
	C355.690247,240.228195 356.127960,240.540146 356.859009,241.349136 
	C362.687988,243.556885 368.191040,245.386215 373.774719,246.922501 
	C376.149109,247.575790 378.692291,247.615433 381.158783,247.933960 
	C381.158783,247.933945 381.591858,247.960663 382.028748,248.270538 
	C391.264557,250.869202 400.067993,253.140579 408.861267,255.450745 
	C422.968170,259.156982 437.031860,263.034851 451.181244,266.570312 
	C466.430054,270.380524 481.762238,273.855927 497.047058,277.523163 
	C508.704193,280.320007 520.344177,283.188263 532.229309,286.297363 
	C535.345947,287.661804 538.262573,288.665680 541.092957,289.871948 
	C543.587402,290.935059 545.985474,292.224243 548.426086,293.413635 
	C548.426086,293.413635 548.503723,293.582977 548.329773,294.065765 
	C548.260559,298.443695 548.365295,302.338867 548.470093,306.234009 
	C548.470032,306.234009 548.503235,306.427521 548.095825,306.334625 
	C546.655762,307.632263 545.623108,309.022797 544.590454,310.413330 
	C544.590454,310.413300 544.426819,310.495117 543.995605,310.347595 
	C535.434875,312.170441 527.310974,314.164459 519.174561,316.105591 
	C507.675018,318.849091 496.130890,321.413849 484.670135,324.309479 
	C469.785706,328.070068 454.972870,332.113007 440.112640,335.970459 
	C432.183136,338.028870 424.216064,339.942383 416.270630,341.939819 
	C399.380707,346.185822 382.466400,350.339905 365.629028,354.785370 
	C362.285004,355.668304 357.427673,353.830231 356.059875,359.184998 
	C356.042511,359.492035 355.915375,359.743561 355.088135,360.035706 
	C352.665222,365.087921 350.832611,370.043945 348.997284,375.419891 
	C349.090210,376.958527 349.185822,378.077240 349.281464,379.195984 
	C349.281464,379.195984 349.427246,379.273193 349.107971,379.231262 
	C348.373749,379.555573 347.711548,379.849274 347.579681,380.298615 
	C343.529022,394.101379 339.452026,407.897461 335.572357,421.748718 
	C334.436890,425.802704 333.885559,430.020294 333.066467,434.162903 
	C333.066467,434.162903 333.034058,434.597443 332.705658,435.026001 
	C331.863739,436.669586 331.217957,437.846771 330.857269,439.105621 
	C327.550354,450.647217 324.329346,462.213501 321.007111,473.750641 
	C319.066956,480.488190 316.979340,487.183197 314.973602,493.902008 
	C311.620331,505.134735 308.149658,516.335083 305.007324,527.626709 
	C303.974945,531.336365 303.806976,535.286621 303.243774,539.126831 
	C302.421539,540.356567 301.599335,541.586243 300.043152,542.925049 
	C294.518494,543.367798 289.727814,543.701355 284.937164,544.034912 
	C284.937164,544.034973 284.988983,543.997986 284.869080,543.788025 
	C284.441010,543.411499 284.132843,543.244873 283.824707,543.078308 
	C283.824707,543.078308 283.927826,543.101379 283.905090,542.791321 
	C283.188660,542.032532 282.494965,541.583801 281.801239,541.135071 
	C281.801239,541.135071 281.893127,541.075500 281.825684,540.865479 
	C281.467072,540.450256 281.175903,540.244995 280.884766,540.039734 
	C280.884766,540.039734 280.966766,540.032593 280.971710,539.653809 
	C278.604919,530.205322 276.382202,521.093323 273.821136,512.077332 
	C271.053101,502.332672 267.969086,492.677826 264.902893,482.760681 
	C264.505310,482.353790 264.227692,482.169983 263.950073,481.986206 
	C263.584351,480.929108 263.218658,479.872009 263.094971,478.274048 
	C262.556763,473.941986 262.024170,470.078949 260.948425,466.373596 
	C258.093750,456.540833 255.004471,446.776215 252.009094,436.568726 
	C251.866119,434.838531 251.905106,433.472717 251.551361,432.217529 
	C247.103806,416.436188 242.619125,400.665192 238.081421,384.909546 
	C237.593094,383.213989 236.712463,381.631348 236.011475,379.585022 
	C234.299896,372.782745 232.662308,366.370941 230.814667,360.020233 
	C230.486526,358.892334 229.441360,357.366089 228.461761,357.131226 
	C220.967178,355.334229 213.406830,353.811554 205.866928,352.203583 
	C205.866928,352.203583 205.934616,352.298523 205.762283,351.972748 
	C204.393097,351.432129 203.196243,351.217285 201.768341,350.720581 
	C191.996613,347.964966 182.442490,345.541534 172.920197,342.998901 
	C167.049713,341.431427 161.278397,339.468933 155.371704,338.066498 
	C147.337677,336.158966 139.161026,334.843445 131.145874,332.867065 
	C117.916786,329.605042 104.775162,325.989044 91.565224,322.646576 
	C90.868820,322.470337 89.880295,323.448608 89.027763,323.889435 
	C88.277084,323.638916 87.526405,323.388397 86.944992,322.664276 
	C87.105522,322.005768 87.096771,321.820831 87.088028,321.635925 
	C86.896088,321.820831 86.704155,322.005737 86.512207,322.190613 
	C85.871048,322.120636 85.229897,322.050629 84.032074,321.644836 
	C68.577057,317.561920 53.678696,313.814789 38.780338,310.067657 
	C38.215397,309.629425 37.650455,309.191193 37.124420,308.173248 
	C36.957012,306.600342 37.039356,305.397339 36.495667,304.649414 
	C33.782604,300.917053 35.404514,297.522247 37.035561,294.069092 
	C37.692387,292.678528 38.277023,291.253815 38.894516,289.844666 
	C38.894516,289.844666 38.956753,289.940460 39.310040,289.950409 
	C57.550030,285.619690 75.444115,281.308594 93.304131,276.860809 
	C94.318840,276.608093 95.054596,275.235291 95.920181,274.383789 
	C97.397591,273.956665 98.875000,273.529572 100.728989,273.432800 
	C102.404022,273.509155 103.702469,273.255188 105.423203,273.004486 
	C115.128601,271.043182 124.467239,269.306702 133.682465,267.063293 
	C149.513916,263.209167 165.281830,259.090393 181.050247,254.982315 
	C191.081314,252.368958 201.065170,249.574417 211.070190,246.861115 
	C214.094208,245.889816 217.118225,244.918488 220.837158,244.074493 
	C223.678085,243.433807 225.824066,242.665833 227.970047,241.897842 
	C227.970047,241.897842 227.974457,241.975174 228.273727,241.932861 
	C229.035980,241.236389 229.498962,240.582214 229.961945,239.928040 
	C229.961960,239.928040 230.001495,239.985382 230.337585,239.927277 
	C231.116638,239.239365 231.754089,238.670288 231.972672,237.970398 
	C234.390808,230.227982 236.729568,222.460815 239.118866,214.709320 
	C241.379990,207.373657 243.895081,200.108200 245.904541,192.704956 
	C248.872147,181.771698 251.251068,170.676208 254.320663,159.773697 
	C257.945648,146.898514 262.196259,134.200272 265.880554,121.340775 
	C268.873199,110.895378 271.435547,100.326569 274.178650,89.809853 
	C276.439209,81.142975 278.684937,72.472229 280.937256,63.803200 
	C281.707306,62.912727 282.477356,62.022251 283.961060,61.048561 
	C290.288971,58.952271 295.690155,60.402458 301.083832,61.974697 
	C301.736969,62.680103 302.390137,63.385509 303.038849,64.817688 
	C303.034180,66.042145 302.923248,66.570076 303.049774,67.033127 
	C306.606537,80.050659 310.160034,93.069351 313.831299,106.054703 
	C314.053864,106.841805 315.244019,107.355347 315.983948,107.996170 
z"/>
<path fill="#FD5E5E" opacity="1.000000" stroke="none" 
	d="
M46.996674,231.997559 
	C48.050495,227.497940 49.123512,223.002701 50.147633,218.496323 
	C50.501514,216.939178 50.733795,215.354401 51.445358,213.312714 
	C51.944210,211.907578 52.019337,210.971954 52.094460,210.036331 
	C52.115860,209.480087 52.137257,208.923859 52.710876,208.029694 
	C55.401928,199.932480 57.664188,192.201904 59.485104,184.368713 
	C59.663563,183.601028 57.128609,182.202576 55.853127,181.096893 
	C55.853127,181.096893 55.948421,181.070358 55.861778,180.848694 
	C55.453671,180.449875 55.132210,180.272705 54.810745,180.095551 
	C54.810745,180.095551 54.931969,180.207748 54.876678,180.042389 
	C54.548458,179.915604 54.275524,179.954178 54.002594,179.992767 
	C41.588055,171.746216 29.180458,163.489151 16.748966,155.268234 
	C15.408228,154.381607 13.966948,153.622391 12.506495,152.946213 
	C8.533295,151.106689 7.762336,147.719879 8.042852,143.848541 
	C8.314225,140.103394 10.409961,137.763657 14.035173,137.065567 
	C24.867197,134.979675 35.722908,133.016846 46.568611,131.001877 
	C54.598736,129.509995 62.848995,128.681320 70.533264,126.141479 
	C73.110939,125.289497 74.747520,120.246407 75.948311,116.815887 
	C80.111610,104.921768 83.846588,92.878479 87.844940,80.925529 
	C89.450981,76.124321 91.227097,71.374413 93.093658,66.667717 
	C94.581100,62.916985 99.193008,62.268070 105.773941,65.126144 
	C106.555130,65.611504 106.880692,65.737480 107.206245,65.863457 
	C107.206245,65.863457 107.119766,65.916977 107.179314,66.145943 
	C107.559174,66.557846 107.879478,66.740784 108.199783,66.923729 
	C108.199783,66.923729 108.107483,66.955605 108.066978,67.321442 
	C109.751938,73.280899 111.318924,78.930145 113.256416,84.449326 
	C114.636871,88.381721 116.515701,92.139153 118.172134,95.974655 
	C118.172134,95.974655 118.057304,95.967239 118.063461,96.253342 
	C118.436714,97.058990 118.803810,97.578529 119.170906,98.098068 
	C119.170906,98.098068 119.245728,98.304665 119.136627,98.808586 
	C120.998665,104.868088 122.969795,110.423676 124.940918,115.979263 
	C125.466309,116.806129 126.151077,117.572304 126.492577,118.469185 
	C130.123810,128.006180 130.108780,128.005966 140.096970,127.955276 
	C140.911194,127.951141 141.726196,128.103317 143.002289,128.838776 
	C148.767670,130.541321 154.047043,131.739990 159.380920,132.601288 
	C168.929123,134.143112 178.510162,135.481735 188.077469,136.905304 
	C188.077469,136.905304 188.011719,136.745575 188.149261,137.025574 
	C189.072296,137.520523 189.857758,137.735504 190.643234,137.950470 
	C195.450607,143.498535 195.722229,145.650238 190.109146,150.261444 
	C182.907227,156.177856 175.091064,161.345306 167.555267,166.856918 
	C160.541901,171.986450 153.434830,177.001205 146.655380,182.424454 
	C145.469482,183.373138 145.109070,186.180145 145.379929,187.976181 
	C146.393326,194.695633 147.827240,201.351669 148.944336,208.775620 
	C148.898773,210.760132 148.842957,212.044647 149.152817,213.233871 
	C151.550064,222.434250 154.157944,231.595642 153.249374,241.276703 
	C153.249374,241.276703 153.012680,241.163193 152.810425,241.154083 
	C152.082413,241.697495 151.556641,242.250015 151.030853,242.802536 
	C144.673203,244.692749 140.048233,240.881699 135.346268,237.788925 
	C131.043518,234.958740 127.146759,231.517685 122.899361,228.595459 
	C116.762947,224.373520 110.413429,220.461624 104.270004,216.249451 
	C101.047531,214.039993 99.073029,216.755005 96.954681,217.965820 
	C89.932610,221.979568 83.061600,226.264328 76.214027,230.574432 
	C70.998779,233.857101 65.907242,237.336273 60.188507,240.976929 
	C59.431873,241.543411 59.247410,241.860992 59.062943,242.178558 
	C59.062943,242.178558 59.042690,242.087601 58.621422,242.050446 
	C55.088486,242.020416 51.976818,242.027527 48.865154,242.034637 
	C48.522552,242.049805 48.259270,241.912659 48.034935,241.004745 
	C47.661938,237.590012 47.329304,234.793793 46.996674,231.997559 
z"/>
<path fill="#147BCE" opacity="1.000000" stroke="none" 
	d="
M449.927032,373.753113 
	C449.933075,373.429352 450.078186,373.189880 450.985535,373.005493 
	C454.492706,372.465546 457.376770,371.954895 460.260803,371.444244 
	C461.452515,372.701965 462.644226,373.959717 463.928101,375.897278 
	C464.743927,378.035706 465.467590,379.494263 466.191223,380.952850 
	C466.191223,380.952850 466.079681,380.953766 466.059326,381.265289 
	C466.436096,382.364563 466.833221,383.152313 467.230347,383.940063 
	C467.230347,383.940063 467.100159,383.942169 467.076233,384.284119 
	C470.021301,393.391693 472.864532,402.202759 476.009369,410.904846 
	C477.734436,415.678223 479.968262,420.267761 482.214417,425.241089 
	C491.969574,427.026764 501.482971,428.511536 511.435303,430.000427 
	C516.635071,430.320862 521.395874,430.637207 526.156677,430.953552 
	C526.156677,430.953522 526.614258,430.986359 527.112427,431.324249 
	C529.449402,431.750031 531.288208,431.837921 533.127075,431.925812 
	C533.127075,431.925812 533.029602,431.946381 533.179321,432.195496 
	C534.342346,432.825104 535.355652,433.205566 536.368896,433.586060 
	C536.368896,433.586060 536.392761,433.659546 536.358154,433.954620 
	C536.680969,434.380585 537.038269,434.511475 537.395630,434.642395 
	C537.395630,434.642395 537.377625,434.704956 537.251221,435.120911 
	C537.194092,438.107544 537.263367,440.678162 537.332520,443.248810 
	C537.332520,443.248810 537.391296,443.194122 537.079224,443.251678 
	C536.638062,443.663055 536.508850,444.016876 536.379700,444.370697 
	C536.379700,444.370697 536.485474,444.535461 536.295044,444.454163 
	C535.958679,444.371033 535.812683,444.369232 535.666748,444.367432 
	C535.805359,444.591400 535.943970,444.815338 536.082581,445.039246 
	C524.278748,454.307526 512.474915,463.575806 500.229462,472.774994 
	C499.649231,472.691162 499.510559,472.676422 499.371918,472.661652 
	C499.435791,472.924469 499.499664,473.187256 499.563538,473.450073 
	C499.563538,473.450073 499.463531,473.449097 499.077423,473.348480 
	C498.164764,473.891052 497.638214,474.534241 497.111664,475.177399 
	C497.111664,475.177399 497.093719,475.084686 496.767639,475.110901 
	C496.048462,475.900024 495.163300,476.803131 495.334839,477.405273 
	C498.814880,489.621948 502.416107,501.804077 505.998993,514.393555 
	C506.822205,519.940125 507.639465,525.086182 508.456726,530.232300 
	C508.456726,530.232300 508.454041,530.326965 508.049683,530.348389 
	C505.627472,530.913269 503.613586,531.871643 501.590851,531.890686 
	C499.282837,531.912476 496.966949,531.097412 494.654480,530.645996 
	C494.654480,530.645996 494.566284,530.552673 494.591492,530.153809 
	C493.373901,529.192566 492.131042,528.630127 490.888214,528.067688 
	C490.888214,528.067688 490.969116,528.028015 490.928284,527.708130 
	C490.134949,527.117126 489.382385,526.846008 488.629822,526.574951 
	C488.629822,526.574951 488.637390,526.480286 488.640442,526.108215 
	C487.644287,525.329285 486.645020,524.922363 485.645782,524.515442 
	C485.645782,524.515442 485.751038,524.528687 485.685883,524.152405 
	C485.012817,523.568481 484.404907,523.360840 483.796967,523.153198 
	C483.796967,523.153198 483.910248,523.113464 483.807556,522.894287 
	C483.348511,522.570496 482.992157,522.465942 482.635803,522.361328 
	C482.635803,522.361328 482.768463,522.398071 482.696106,522.090088 
	C482.019501,521.567017 481.415283,521.352051 480.811066,521.137024 
	C480.811066,521.137024 480.918610,521.101746 480.816162,520.879089 
	C480.357178,520.538391 480.000610,520.420410 479.644073,520.302368 
	C479.644073,520.302368 479.813934,520.291077 479.728882,520.021667 
	C479.037567,519.542480 478.431305,519.332764 477.825073,519.122986 
	C477.825073,519.122986 477.927490,519.087891 477.822418,518.868042 
	C477.368317,518.509705 477.019257,518.371216 476.670227,518.232727 
	C476.670227,518.232727 476.855713,518.211182 476.756165,517.967773 
	C476.055695,517.515381 475.454742,517.306396 474.853821,517.097412 
	C474.853821,517.097412 474.948273,517.059692 474.804352,516.825195 
	C474.269867,516.433838 473.879272,516.276978 473.488708,516.120117 
	C467.645721,512.230652 461.802704,508.341156 455.699127,504.278198 
	C445.273010,511.693970 434.814545,519.237793 424.227753,526.596985 
	C421.160950,528.728821 417.898102,530.870728 414.399384,531.986145 
	C412.078461,532.726074 408.905426,532.261475 406.604248,531.235779 
	C403.483551,529.844849 402.344452,526.751892 403.199036,523.264404 
	C403.790100,520.852173 404.506256,518.470581 405.584198,516.015015 
	C406.340637,515.779114 406.914215,515.668884 406.984131,515.418213 
	C409.648682,505.865479 412.283600,496.304291 414.842072,486.722778 
	C414.968018,486.251099 414.373779,485.587128 414.114899,485.012695 
	C414.161194,484.521027 414.063751,483.954224 414.275543,483.549103 
	C417.136780,478.076874 415.716919,474.395264 410.444946,470.978790 
	C402.363892,465.741943 394.737244,459.789215 387.049866,453.965881 
	C383.245209,451.083893 379.475189,448.059052 376.207214,444.608551 
	C374.673553,442.989227 373.697723,440.223969 373.651001,437.953674 
	C373.574188,434.222321 375.729523,432.161316 379.851227,431.776428 
	C386.632446,431.143158 393.359467,429.928955 400.751282,429.193146 
	C407.432434,428.947266 413.504364,428.711182 419.499756,427.905731 
	C423.714478,427.339539 427.825104,425.998413 431.976898,424.725739 
	C431.956543,424.263702 431.941467,424.079224 431.926392,423.894714 
	C431.926392,423.894714 431.948853,423.975128 432.248718,423.834412 
	C435.030121,417.461792 437.511688,411.229889 440.038330,404.622681 
	C441.169312,400.960114 442.276855,397.679779 443.336700,394.384064 
	C445.546844,387.511383 447.731720,380.630585 449.927032,373.753113 
z"/>
<path fill="#FFCB22" opacity="1.000000" stroke="none" 
	d="
M172.101929,405.970825 
	C172.449905,405.979767 172.716751,406.131439 172.962677,407.054626 
	C173.399323,411.849121 173.775787,416.014801 174.152252,420.180511 
	C174.152252,420.180511 174.105362,420.076202 173.867279,420.198334 
	C173.425735,420.903046 173.222260,421.485626 173.018768,422.068176 
	C164.449112,429.403351 156.002762,436.888672 147.285980,444.044586 
	C124.141403,463.044861 100.883514,481.907196 77.655907,500.806213 
	C76.369133,501.853180 74.948219,502.735321 72.985748,503.502441 
	C68.558243,503.596313 64.734718,503.881958 60.911198,504.167603 
	C58.258450,502.138123 55.605701,500.108643 52.957146,497.296265 
	C53.289997,490.950043 53.618652,485.386688 53.947304,479.823334 
	C54.733475,478.927643 55.519646,478.031952 56.969818,477.051514 
	C58.389431,476.253510 59.145039,475.540283 59.900642,474.827057 
	C59.900642,474.827057 59.933784,474.919342 60.134521,474.930237 
	C60.544216,474.620850 60.753178,474.300568 60.962135,473.980255 
	C84.182739,457.053040 107.371346,440.081665 130.640793,423.221863 
	C139.115540,417.081512 147.782806,411.206818 156.919434,405.384918 
	C162.419052,403.306641 167.251434,404.960114 172.101929,405.970825 
z"/>
<path fill="#FD5E5E" opacity="1.000000" stroke="none" 
	d="
M401.055298,36.031448 
	C403.057556,30.881413 404.579102,25.470118 407.196533,20.654470 
	C409.839386,15.792099 415.669037,15.408300 420.216156,15.317305 
	C428.278839,15.155955 435.151245,25.963459 432.045532,33.573643 
	C426.060699,48.238670 419.609528,62.717087 413.160309,77.187576 
	C408.768494,87.041779 404.103333,96.775703 399.465973,106.518486 
	C394.321259,117.327148 389.225952,128.165253 383.758057,138.810196 
	C382.318085,141.613617 379.988708,144.395233 377.355316,146.059586 
	C371.957397,149.471130 362.830750,143.797272 363.664398,137.465958 
	C364.326355,132.438431 366.396576,127.596336 368.321442,122.256477 
	C370.920166,116.854843 373.113586,111.898254 375.112091,106.864281 
	C375.707367,105.364906 375.755890,103.648476 376.054932,102.031494 
	C381.703735,86.940529 387.352539,71.849548 393.415039,56.311607 
	C395.853088,51.223053 397.988373,46.625225 399.846313,41.917942 
	C400.570679,40.082623 400.670837,38.000916 401.055298,36.031448 
z"/>
<path fill="#157ACE" opacity="1.000000" stroke="none" 
	d="
M517.894531,133.938232 
	C527.312988,133.908356 533.668701,142.680756 531.062439,151.380615 
	C529.379333,156.998856 526.049927,160.472961 520.223083,162.297424 
	C516.651672,163.415710 513.783752,166.610016 510.385895,168.484085 
	C497.892792,175.374710 485.213562,181.931885 472.790314,188.944000 
	C461.788147,195.154022 451.111938,201.941345 440.113678,208.158646 
	C437.380737,209.703568 433.965515,210.716400 430.852661,210.744827 
	C426.892914,210.781021 423.492462,208.551697 422.288086,204.478455 
	C421.049438,200.289307 421.852600,196.141281 425.532318,193.535461 
	C446.897980,178.405121 468.398560,163.465439 489.807739,148.396286 
	C494.238190,145.277817 498.567749,141.998627 502.775787,138.586304 
	C507.102844,135.077499 511.947449,133.567703 517.894531,133.938232 
z"/>
<path fill="#FEC416" opacity="1.000000" stroke="none" 
	d="
M356.426208,359.054810 
	C357.427673,353.830231 362.285004,355.668304 365.629028,354.785370 
	C382.466400,350.339905 399.380707,346.185822 416.270630,341.939819 
	C424.216064,339.942383 432.183136,338.028870 440.112640,335.970459 
	C454.972870,332.113007 469.785706,328.070068 484.670135,324.309479 
	C496.130890,321.413849 507.675018,318.849091 519.174561,316.105591 
	C527.310974,314.164459 535.434875,312.170441 543.904541,310.338654 
	C538.314636,312.338104 532.459290,314.495575 526.442627,316.013641 
	C470.359161,330.164246 414.247803,344.204346 358.147858,358.289612 
	C357.672882,358.408844 357.243347,358.708984 356.426208,359.054810 
z"/>
<path fill="#FEC314" opacity="1.000000" stroke="none" 
	d="
M280.639282,64.013008 
	C278.684937,72.472229 276.439209,81.142975 274.178650,89.809853 
	C271.435547,100.326569 268.873199,110.895378 265.880554,121.340775 
	C262.196259,134.200272 257.945648,146.898514 254.320663,159.773697 
	C251.251068,170.676208 248.872147,181.771698 245.904541,192.704956 
	C243.895081,200.108200 241.379990,207.373657 239.118866,214.709320 
	C236.729568,222.460815 234.390808,230.227982 231.972672,237.970398 
	C231.754089,238.670288 231.116638,239.239365 230.303986,239.918182 
	C245.979752,183.220825 262.018829,126.472649 278.098480,69.735977 
	C278.636200,67.838745 279.584473,66.057899 280.639282,64.013008 
z"/>
<path fill="#FEC414" opacity="1.000000" stroke="none" 
	d="
M531.991821,286.024750 
	C520.344177,283.188263 508.704193,280.320007 497.047058,277.523163 
	C481.762238,273.855927 466.430054,270.380524 451.181244,266.570312 
	C437.031860,263.034851 422.968170,259.156982 408.861267,255.450745 
	C400.067993,253.140579 391.264557,250.869202 382.242035,248.310364 
	C390.071075,249.712387 398.190399,251.116516 406.165192,253.101456 
	C447.286438,263.336548 488.370911,273.719421 529.465088,284.062958 
	C530.101807,284.223267 530.699280,284.539612 531.656494,285.170929 
	C531.997925,285.558746 531.991821,286.024750 531.991821,286.024750 
z"/>
<path fill="#FEC315" opacity="1.000000" stroke="none" 
	d="
M355.136017,239.549042 
	C353.514832,236.983139 351.175903,234.245728 350.146240,231.082199 
	C346.229706,219.049088 342.595490,206.918365 339.130524,194.745926 
	C336.525391,185.594101 334.430695,176.298187 331.938171,167.112701 
	C330.120728,160.415207 327.880493,153.831665 326.097748,147.125824 
	C324.552094,141.311722 323.384430,135.397125 322.074646,129.053101 
	C327.732239,147.572403 333.350769,166.569763 339.001831,185.557449 
	C344.323242,203.437546 349.678925,221.307449 355.136017,239.549042 
z"/>
<path fill="#FEC416" opacity="1.000000" stroke="none" 
	d="
M89.385674,324.017273 
	C89.880295,323.448608 90.868820,322.470337 91.565224,322.646576 
	C104.775162,325.989044 117.916786,329.605042 131.145874,332.867065 
	C139.161026,334.843445 147.337677,336.158966 155.371704,338.066498 
	C161.278397,339.468933 167.049713,341.431427 172.920197,342.998901 
	C182.442490,345.541534 191.996613,347.964966 201.770538,350.919830 
	C202.003784,351.400940 202.005173,351.799469 202.005173,351.799469 
	C164.584641,342.581360 127.164108,333.363220 89.385674,324.017273 
z"/>
<path fill="#FEC414" opacity="1.000000" stroke="none" 
	d="
M303.516968,538.895691 
	C303.806976,535.286621 303.974945,531.336365 305.007324,527.626709 
	C308.149658,516.335083 311.620331,505.134735 314.973602,493.902008 
	C316.979340,487.183197 319.066956,480.488190 321.007111,473.750641 
	C324.329346,462.213501 327.550354,450.647217 330.857269,439.105621 
	C331.217957,437.846771 331.863739,436.669586 332.654480,435.237762 
	C332.314026,438.068939 331.892548,441.172363 331.048401,444.156219 
	C322.707916,473.637238 314.304382,503.100433 305.891510,532.560913 
	C305.301544,534.626953 304.495697,536.631470 303.516968,538.895691 
z"/>
<path fill="#FEC314" opacity="1.000000" stroke="none" 
	d="
M210.858856,246.564240 
	C201.065170,249.574417 191.081314,252.368958 181.050247,254.982315 
	C165.281830,259.090393 149.513916,263.209167 133.682465,267.063293 
	C124.467239,269.306702 115.128601,271.043182 105.421616,272.806091 
	C104.997734,272.604431 104.997330,272.207642 104.997330,272.207642 
	C140.214066,263.560883 175.430801,254.914124 210.858856,246.564240 
z"/>
<path fill="#FEC416" opacity="1.000000" stroke="none" 
	d="
M236.013824,379.996338 
	C236.712463,381.631348 237.593094,383.213989 238.081421,384.909546 
	C242.619125,400.665192 247.103806,416.436188 251.551361,432.217529 
	C251.905106,433.472717 251.866119,434.838531 251.959595,436.941498 
	C251.860001,437.975677 251.810440,438.221344 251.760880,438.467010 
	C246.241028,419.230743 240.721161,399.994476 235.400787,380.376953 
	C235.600281,379.995728 236.013824,379.996338 236.013824,379.996338 
z"/>
<path fill="#FEC414" opacity="1.000000" stroke="none" 
	d="
M265.022888,482.983795 
	C267.969086,492.677826 271.053101,502.332672 273.821136,512.077332 
	C276.382202,521.093323 278.604919,530.205322 280.954346,539.691162 
	C278.633636,533.269165 276.117645,526.495056 274.085266,519.578857 
	C270.592102,507.691772 267.400543,495.716064 264.328186,483.386475 
	C264.574005,482.995361 265.022888,482.983795 265.022888,482.983795 
z"/>
<path fill="#FEC20F" opacity="1.000000" stroke="none" 
	d="
M95.505493,274.494324 
	C95.054596,275.235291 94.318840,276.608093 93.304131,276.860809 
	C75.444115,281.308594 57.550030,285.619690 39.257122,289.928925 
	C41.363609,288.796997 43.781532,287.323669 46.404484,286.657013 
	C62.607586,282.538666 78.856865,278.601929 95.505493,274.494324 
z"/>
<path fill="#FEC414" opacity="1.000000" stroke="none" 
	d="
M333.389679,433.988281 
	C333.885559,430.020294 334.436890,425.802704 335.572357,421.748718 
	C339.452026,407.897461 343.529022,394.101379 347.579681,380.298615 
	C347.711548,379.849274 348.373749,379.555573 349.104767,379.313660 
	C344.184845,397.563232 338.948853,415.688446 333.389679,433.988281 
z"/>
<path fill="#FEC20F" opacity="1.000000" stroke="none" 
	d="
M236.011475,379.585022 
	C236.013824,379.996338 235.600281,379.995728 235.393509,379.995178 
	C233.545380,374.331329 231.659180,368.723724 230.353851,362.983978 
	C229.561813,359.501282 227.591446,358.091461 224.417160,357.360107 
	C218.326385,355.956848 212.278244,354.368530 206.039673,352.530273 
	C213.406830,353.811554 220.967178,355.334229 228.461761,357.131226 
	C229.441360,357.366089 230.486526,358.892334 230.814667,360.020233 
	C232.662308,366.370941 234.299896,372.782745 236.011475,379.585022 
z"/>
<path fill="#FEC20F" opacity="1.000000" stroke="none" 
	d="
M316.020630,107.594315 
	C315.244019,107.355347 314.053864,106.841805 313.831299,106.054703 
	C310.160034,93.069351 306.606537,80.050659 303.049774,67.033127 
	C302.923248,66.570076 303.034180,66.042145 303.063080,65.115936 
	C304.595490,68.835320 306.311981,72.920357 307.560486,77.143707 
	C310.511139,87.124954 313.239258,97.172005 316.020630,107.594315 
z"/>
<path fill="#FB4442" opacity="1.000000" stroke="none" 
	d="
M187.944641,136.546234 
	C178.510162,135.481735 168.929123,134.143112 159.380920,132.601288 
	C154.047043,131.739990 148.767670,130.541321 143.239471,129.181946 
	C149.356323,129.745071 155.720306,130.483139 162.033005,131.530365 
	C170.646408,132.959259 179.220734,134.623703 187.944641,136.546234 
z"/>
<path fill="#FEC20F" opacity="1.000000" stroke="none" 
	d="
M38.990486,310.366089 
	C53.678696,313.814789 68.577057,317.561920 83.713074,321.581909 
	C77.700684,320.607300 71.382874,319.624908 65.216843,318.048706 
	C56.486080,315.816925 47.867279,313.147125 38.990486,310.366089 
z"/>
<path fill="#FEC314" opacity="1.000000" stroke="none" 
	d="
M251.779449,438.848572 
	C251.810440,438.221344 251.860001,437.975677 251.959045,437.357239 
	C255.004471,446.776215 258.093750,456.540833 260.948425,466.373596 
	C262.024170,470.078949 262.556763,473.941986 263.039917,477.936523 
	C259.094604,465.169952 255.446320,452.200043 251.779449,438.848572 
z"/>
<path fill="#0E66C6" opacity="1.000000" stroke="none" 
	d="
M481.972656,424.940186 
	C479.968262,420.267761 477.734436,415.678223 476.009369,410.904846 
	C472.864532,402.202759 470.021301,393.391693 467.092987,384.221191 
	C469.131836,388.787201 471.230927,393.720306 473.105103,398.737488 
	C476.142670,406.868958 479.032684,415.055542 481.985291,423.839233 
	C481.985565,424.459656 481.972656,424.940186 481.972656,424.940186 
z"/>
<path fill="#1169C7" opacity="1.000000" stroke="none" 
	d="
M505.993042,513.993164 
	C502.416107,501.804077 498.814880,489.621948 495.334839,477.405273 
	C495.163300,476.803131 496.048462,475.900024 496.812836,475.124573 
	C498.488342,480.844208 499.660309,486.610596 501.130493,492.299866 
	C502.940765,499.305115 504.999634,506.246094 506.701599,513.605957 
	C506.452118,513.997131 505.993042,513.993164 505.993042,513.993164 
z"/>
<path fill="#FC4847" opacity="1.000000" stroke="none" 
	d="
M153.582520,241.136536 
	C154.157944,231.595642 151.550064,222.434250 149.152817,213.233871 
	C148.842957,212.044647 148.898773,210.760132 148.919250,209.190491 
	C151.125275,216.774658 153.466782,224.632584 155.114517,232.633423 
	C155.648987,235.228699 154.366852,238.198105 153.582520,241.136536 
z"/>
<path fill="#1169C7" opacity="1.000000" stroke="none" 
	d="
M431.982208,425.003357 
	C427.825104,425.998413 423.714478,427.339539 419.499756,427.905731 
	C413.504364,428.711182 407.432434,428.947266 401.161682,429.136047 
	C407.703003,427.901123 414.472717,426.933441 421.250183,426.023285 
	C424.191742,425.628265 427.149261,425.351807 430.782715,425.009583 
	C431.638000,424.999573 431.810120,425.001465 431.982208,425.003357 
z"/>
<path fill="#0E63C4" opacity="1.000000" stroke="none" 
	d="
M449.618073,373.943176 
	C447.731720,380.630585 445.546844,387.511383 443.336700,394.384064 
	C442.276855,397.679779 441.169312,400.960114 439.803284,404.473267 
	C439.364258,404.179169 439.205353,403.659271 439.046448,403.139374 
	C442.467316,393.470642 445.888214,383.801910 449.618073,373.943176 
z"/>
<path fill="#0E66C6" opacity="1.000000" stroke="none" 
	d="
M413.991150,485.371399 
	C414.373779,485.587128 414.968018,486.251099 414.842072,486.722778 
	C412.283600,496.304291 409.648682,505.865479 406.984131,515.418213 
	C406.914215,515.668884 406.340637,515.779114 405.821014,515.701782 
	C408.382568,505.542542 411.125000,495.636322 413.991150,485.371399 
z"/>
<path fill="#146BC7" opacity="1.000000" stroke="none" 
	d="
M482.214417,425.241089 
	C481.972656,424.940186 481.985565,424.459656 481.996826,424.219574 
	C488.270172,424.972992 494.537872,425.932495 500.791931,426.974182 
	C503.975281,427.504425 507.134064,428.182404 510.651306,429.180847 
	C510.998688,429.568054 510.996338,429.996338 510.996338,429.996338 
	C501.482971,428.511536 491.969574,427.026764 482.214417,425.241089 
z"/>
<path fill="#FB4442" opacity="1.000000" stroke="none" 
	d="
M118.137100,95.574509 
	C116.515701,92.139153 114.636871,88.381721 113.256416,84.449326 
	C111.318924,78.930145 109.751938,73.280899 108.066154,67.272621 
	C111.437912,76.296768 114.769997,85.735565 118.137100,95.574509 
z"/>
<path fill="#FB4442" opacity="1.000000" stroke="none" 
	d="
M56.065857,181.413239 
	C57.128609,182.202576 59.663563,183.601028 59.485104,184.368713 
	C57.664188,192.201904 55.401928,199.932480 52.893501,207.813782 
	C54.239056,200.892166 56.097702,193.878006 57.555733,186.781555 
	C57.870468,185.249695 56.742188,183.421356 56.065857,181.413239 
z"/>
<path fill="#FEC315" opacity="1.000000" stroke="none" 
	d="
M380.975830,247.606964 
	C378.692291,247.615433 376.149109,247.575790 373.774719,246.922501 
	C368.191040,245.386215 362.687988,243.556885 357.083954,241.502441 
	C364.941345,243.199142 372.867096,245.239548 380.975830,247.606964 
z"/>
<path fill="#FC4847" opacity="1.000000" stroke="none" 
	d="
M375.746094,102.205673 
	C375.755890,103.648476 375.707367,105.364906 375.112091,106.864281 
	C373.113586,111.898254 370.920166,116.854843 368.455322,121.909637 
	C370.551941,115.445435 372.994598,108.912643 375.746094,102.205673 
z"/>
<path fill="#FC4847" opacity="1.000000" stroke="none" 
	d="
M400.745331,36.204025 
	C400.670837,38.000916 400.570679,40.082623 399.846313,41.917942 
	C397.988373,46.625225 395.853088,51.223053 393.482849,55.920364 
	C395.569763,49.442928 398.002563,42.909771 400.745331,36.204025 
z"/>
<path fill="#FEC416" opacity="1.000000" stroke="none" 
	d="
M532.229309,286.297363 
	C531.991821,286.024750 531.997925,285.558746 531.998535,285.325684 
	C537.817261,286.841980 544.499146,286.768768 548.354553,293.111908 
	C545.985474,292.224243 543.587402,290.935059 541.092957,289.871948 
	C538.262573,288.665680 535.345947,287.661804 532.229309,286.297363 
z"/>
<path fill="#FEC20F" opacity="1.000000" stroke="none" 
	d="
M38.577293,289.985901 
	C38.277023,291.253815 37.692387,292.678528 37.035561,294.069092 
	C35.404514,297.522247 33.782604,300.917053 36.495667,304.649414 
	C37.039356,305.397339 36.957012,306.600342 37.033417,307.914795 
	C32.025288,302.173706 32.475788,296.159912 38.577293,289.985901 
z"/>
<path fill="#FEC416" opacity="1.000000" stroke="none" 
	d="
M349.000000,375.000000 
	C350.832611,370.043945 352.665222,365.087921 354.885193,360.110657 
	C353.692719,365.572296 352.112885,371.055176 350.253723,376.503296 
	C349.649597,375.979065 349.324799,375.489532 349.000000,375.000000 
z"/>
<path fill="#146BC7" opacity="1.000000" stroke="none" 
	d="
M438.846008,403.427490 
	C439.205353,403.659271 439.364258,404.179169 439.758209,404.848511 
	C437.511688,411.229889 435.030121,417.461792 432.207886,423.825500 
	C434.126678,417.210022 436.386108,410.462799 438.846008,403.427490 
z"/>
<path fill="#FEC20F" opacity="1.000000" stroke="none" 
	d="
M321.964233,127.603729 
	C321.054108,126.451393 319.773773,125.012115 319.304901,123.344673 
	C318.030487,118.812737 317.099579,114.184196 316.058105,109.153091 
	C318.043823,114.879051 320.003967,121.045876 321.964233,127.603729 
z"/>
<path fill="#FEC314" opacity="1.000000" stroke="none" 
	d="
M300.904114,61.670547 
	C295.690155,60.402458 290.288971,58.952271 284.244141,60.953255 
	C289.568848,56.376713 295.179871,57.548054 300.904114,61.670547 
z"/>
<path fill="#FEC20B" opacity="1.000000" stroke="none" 
	d="
M53.650002,480.030029 
	C53.618652,485.386688 53.289997,490.950043 52.929668,496.965637 
	C49.031036,491.584473 50.025040,485.879730 53.650002,480.030029 
z"/>
<path fill="#FC4847" opacity="1.000000" stroke="none" 
	d="
M125.002060,115.584564 
	C122.969795,110.423676 120.998665,104.868088 119.045654,98.870178 
	C121.063576,104.015190 123.063385,109.602531 125.002060,115.584564 
z"/>
<path fill="#FEC414" opacity="1.000000" stroke="none" 
	d="
M285.192078,544.325439 
	C289.727814,543.701355 294.518494,543.367798 299.742676,543.045166 
	C295.660034,547.292114 290.647766,546.843994 285.192078,544.325439 
z"/>
<path fill="#0E66C6" opacity="1.000000" stroke="none" 
	d="
M505.998993,514.393555 
	C505.993042,513.993164 506.452118,513.997131 506.681641,513.999695 
	C508.260132,519.169861 511.711670,524.055481 508.740662,529.998291 
	C507.639465,525.086182 506.822205,519.940125 505.998993,514.393555 
z"/>
<path fill="#FEC416" opacity="1.000000" stroke="none" 
	d="
M548.763672,306.074646 
	C548.365295,302.338867 548.260559,298.443695 548.313477,294.157471 
	C551.577881,297.675568 551.164001,301.754578 548.763672,306.074646 
z"/>
<path fill="#0E66C6" opacity="1.000000" stroke="none" 
	d="
M494.871185,530.887939 
	C496.966949,531.097412 499.282837,531.912476 501.590851,531.890686 
	C503.613586,531.871643 505.627472,530.913269 508.052826,530.395630 
	C504.474426,535.135742 501.525452,535.291992 494.871185,530.887939 
z"/>
<path fill="#075FC4" opacity="1.000000" stroke="none" 
	d="
M511.435303,430.000427 
	C510.996338,429.996338 510.998688,429.568054 511.004333,429.354004 
	C515.923096,429.517334 520.836121,429.894745 525.952942,430.612854 
	C521.395874,430.637207 516.635071,430.320862 511.435303,430.000427 
z"/>
<path fill="#FEC20B" opacity="1.000000" stroke="none" 
	d="
M171.894379,405.664459 
	C167.251434,404.960114 162.419052,403.306641 157.253265,405.312195 
	C161.985291,401.667175 166.862061,402.210114 171.894379,405.664459 
z"/>
<path fill="#FEC20B" opacity="1.000000" stroke="none" 
	d="
M174.479660,419.971588 
	C173.775787,416.014801 173.399323,411.849121 173.028229,407.283722 
	C176.687256,410.755188 177.010330,415.084991 174.479660,419.971588 
z"/>
<path fill="#FEC20B" opacity="1.000000" stroke="none" 
	d="
M61.220562,504.442322 
	C64.734718,503.881958 68.558243,503.596313 72.655304,503.559937 
	C69.129204,504.111816 65.329567,504.414429 61.220562,504.442322 
z"/>
<path fill="#FB4442" opacity="1.000000" stroke="none" 
	d="
M49.114326,242.314697 
	C51.976818,242.027527 55.088486,242.020416 58.667847,242.054352 
	C55.999962,244.644623 52.726116,244.488190 49.114326,242.314697 
z"/>
<path fill="#0E63C4" opacity="1.000000" stroke="none" 
	d="
M459.976868,371.264648 
	C457.376770,371.954895 454.492706,372.465546 451.199097,372.958374 
	C453.757324,372.322052 456.725098,371.703552 459.976868,371.264648 
z"/>
<path fill="#FB4442" opacity="1.000000" stroke="none" 
	d="
M46.690121,232.246323 
	C47.329304,234.793793 47.661938,237.590012 47.973320,240.781311 
	C47.429230,238.282623 46.906399,235.388855 46.690121,232.246323 
z"/>
<path fill="#FEC416" opacity="1.000000" stroke="none" 
	d="
M544.886292,310.337799 
	C545.623108,309.022797 546.655762,307.632263 548.051147,306.422058 
	C547.336670,307.822357 546.259399,309.042297 544.886292,310.337799 
z"/>
<path fill="#075FC4" opacity="1.000000" stroke="none" 
	d="
M537.634338,443.039978 
	C537.263367,440.678162 537.194092,438.107544 537.250977,435.153503 
	C537.563354,437.457092 537.749695,440.144135 537.634338,443.039978 
z"/>
<path fill="#FEC314" opacity="1.000000" stroke="none" 
	d="
M227.590118,241.926483 
	C225.824066,242.665833 223.678085,243.433807 221.209290,244.075165 
	C222.994370,243.284058 225.102280,242.619583 227.590118,241.926483 
z"/>
<path fill="#FEC20F" opacity="1.000000" stroke="none" 
	d="
M104.654068,272.204285 
	C104.997330,272.207642 104.997734,272.604431 104.999329,272.802826 
	C103.702469,273.255188 102.404022,273.509155 101.061691,273.461243 
	C102.115479,272.839874 103.213142,272.520386 104.654068,272.204285 
z"/>
<path fill="#075FC4" opacity="1.000000" stroke="none" 
	d="
M532.975281,431.634766 
	C531.288208,431.837921 529.449402,431.750031 527.328247,431.401855 
	C528.971802,431.208954 530.897644,431.276337 532.975281,431.634766 
z"/>
<path fill="#0E66C6" opacity="1.000000" stroke="none" 
	d="
M466.145020,380.586853 
	C465.467590,379.494263 464.743927,378.035706 464.039185,376.202820 
	C464.738312,377.292603 465.418579,378.756714 466.145020,380.586853 
z"/>
<path fill="#0E66C6" opacity="1.000000" stroke="none" 
	d="
M491.050781,528.348511 
	C492.131042,528.630127 493.373901,529.192566 494.531006,530.132324 
	C493.367950,529.882935 492.290680,529.256104 491.050781,528.348511 
z"/>
<path fill="#FB4442" opacity="1.000000" stroke="none" 
	d="
M51.998550,210.327454 
	C52.019337,210.971954 51.944210,211.907578 51.569069,212.898071 
	C51.480244,212.174820 51.691441,211.396698 51.998550,210.327454 
z"/>
<path fill="#FEC20B" opacity="1.000000" stroke="none" 
	d="
M59.600746,474.919067 
	C59.145039,475.540283 58.389431,476.253510 57.260315,476.967163 
	C57.691490,476.315430 58.496170,475.663239 59.600746,474.919067 
z"/>
<path fill="#0E66C6" opacity="1.000000" stroke="none" 
	d="
M485.827454,524.750977 
	C486.645020,524.922363 487.644287,525.329285 488.593994,526.118164 
	C487.699371,525.995605 486.854248,525.491089 485.827454,524.750977 
z"/>
<path fill="#0E66C6" opacity="1.000000" stroke="none" 
	d="
M488.808258,526.789307 
	C489.382385,526.846008 490.134949,527.117126 490.913879,527.750854 
	C490.289124,527.743469 489.637909,527.373535 488.808258,526.789307 
z"/>
<path fill="#FEC20F" opacity="1.000000" stroke="none" 
	d="
M202.385590,351.903381 
	C202.005173,351.799469 202.003784,351.400940 202.001587,351.201721 
	C203.196243,351.217285 204.393097,351.432129 205.713867,352.005188 
	C204.813843,352.244720 203.789932,352.126007 202.385590,351.903381 
z"/>
<path fill="#FC4847" opacity="1.000000" stroke="none" 
	d="
M151.330231,242.825821 
	C151.556641,242.250015 152.082413,241.697495 152.936218,241.191513 
	C152.719376,241.775085 152.174484,242.312088 151.330231,242.825821 
z"/>
<path fill="#1169C7" opacity="1.000000" stroke="none" 
	d="
M497.392639,475.094391 
	C497.638214,474.534241 498.164764,473.891052 499.043427,473.385193 
	C498.821564,474.018799 498.247589,474.515076 497.392639,475.094391 
z"/>
<path fill="#075FC4" opacity="1.000000" stroke="none" 
	d="
M536.257874,433.271423 
	C535.355652,433.205566 534.342346,432.825104 533.178467,432.145721 
	C534.067505,432.216797 535.107178,432.586823 536.257874,433.271423 
z"/>
<path fill="#FEC414" opacity="1.000000" stroke="none" 
	d="
M348.997284,375.419891 
	C349.324799,375.489532 349.649597,375.979065 350.003174,376.776367 
	C349.957886,377.688110 349.883850,378.292023 349.545624,379.045959 
	C349.185822,378.077240 349.090210,376.958527 348.997284,375.419891 
z"/>
<path fill="#FEC414" opacity="1.000000" stroke="none" 
	d="
M281.906006,541.421631 
	C282.494965,541.583801 283.188660,542.032532 283.878113,542.836670 
	C283.252808,542.697449 282.631805,542.202820 281.906006,541.421631 
z"/>
<path fill="#0E66C6" opacity="1.000000" stroke="none" 
	d="
M467.187927,383.590027 
	C466.833221,383.152313 466.436096,382.364563 466.073059,381.211243 
	C466.453278,381.643768 466.799408,382.441864 467.187927,383.590027 
z"/>
<path fill="#FB4442" opacity="1.000000" stroke="none" 
	d="
M190.534393,137.659332 
	C189.857758,137.735504 189.072296,137.520523 188.224213,136.982635 
	C188.916260,136.895874 189.670898,137.132034 190.534393,137.659332 
z"/>
<path fill="#FEC314" opacity="1.000000" stroke="none" 
	d="
M229.728394,240.099304 
	C229.498962,240.582214 229.035980,241.236389 228.237518,241.919159 
	C228.432983,241.388687 228.963913,240.829636 229.728394,240.099304 
z"/>
<path fill="#0E66C6" opacity="1.000000" stroke="none" 
	d="
M477.967102,519.391724 
	C478.431305,519.332764 479.037567,519.542480 479.686859,520.095703 
	C479.189667,520.179565 478.649414,519.919983 477.967102,519.391724 
z"/>
<path fill="#0E66C6" opacity="1.000000" stroke="none" 
	d="
M474.995789,517.370850 
	C475.454742,517.306396 476.055695,517.515381 476.728577,518.057007 
	C476.246277,518.141174 475.691986,517.892761 474.995789,517.370850 
z"/>
<path fill="#FEC20B" opacity="1.000000" stroke="none" 
	d="
M173.273315,421.899780 
	C173.222260,421.485626 173.425735,420.903046 173.924347,420.194580 
	C173.988937,420.622894 173.758408,421.177124 173.273315,421.899780 
z"/>
<path fill="#0E66C6" opacity="1.000000" stroke="none" 
	d="
M480.955017,521.398193 
	C481.415283,521.352051 482.019501,521.567017 482.639832,522.129639 
	C482.136932,522.204651 481.617920,521.932068 480.955017,521.398193 
z"/>
<path fill="#FEC20B" opacity="1.000000" stroke="none" 
	d="
M60.711246,474.039917 
	C60.753178,474.300568 60.544216,474.620850 60.087570,474.916107 
	C60.046703,474.627228 60.253529,474.363373 60.711246,474.039917 
z"/>
<path fill="#FB4442" opacity="1.000000" stroke="none" 
	d="
M119.134071,97.766991 
	C118.803810,97.578529 118.436714,97.058990 118.077324,96.197510 
	C118.422432,96.382347 118.759834,96.909126 119.134071,97.766991 
z"/>
<path fill="#0E66C6" opacity="1.000000" stroke="none" 
	d="
M483.934937,523.419922 
	C484.404907,523.360840 485.012817,523.568481 485.640594,524.124817 
	C485.131256,524.211243 484.602081,523.948975 483.934937,523.419922 
z"/>
<path fill="#0E66C6" opacity="1.000000" stroke="none" 
	d="
M482.753754,522.610107 
	C482.992157,522.465942 483.348511,522.570496 483.804993,522.954224 
	C483.560669,523.108582 483.216187,522.983704 482.753754,522.610107 
z"/>
<path fill="#FEC414" opacity="1.000000" stroke="none" 
	d="
M280.966064,540.303345 
	C281.175903,540.244995 281.467072,540.450256 281.839966,540.918335 
	C281.630249,540.976501 281.338806,540.771729 280.966064,540.303345 
z"/>
<path fill="#FEC414" opacity="1.000000" stroke="none" 
	d="
M283.925934,543.332275 
	C284.132843,543.244873 284.441010,543.411499 284.864899,543.819580 
	C284.662811,543.902832 284.344971,543.744568 283.925934,543.332275 
z"/>
<path fill="#FB4442" opacity="1.000000" stroke="none" 
	d="
M54.861958,180.383209 
	C55.132210,180.272705 55.453671,180.449875 55.861515,180.898163 
	C55.602989,181.003128 55.258080,180.837006 54.861958,180.383209 
z"/>
<path fill="#0E66C6" opacity="1.000000" stroke="none" 
	d="
M479.761078,520.556702 
	C480.000610,520.420410 480.357178,520.538391 480.813599,520.935669 
	C480.568359,521.080261 480.223206,520.945618 479.761078,520.556702 
z"/>
<path fill="#0E66C6" opacity="1.000000" stroke="none" 
	d="
M476.782471,518.493164 
	C477.019257,518.371216 477.368317,518.509705 477.822388,518.922180 
	C477.583191,519.048584 477.238953,518.901062 476.782471,518.493164 
z"/>
<path fill="#0E66C6" opacity="1.000000" stroke="none" 
	d="
M473.648071,516.393555 
	C473.879272,516.276978 474.269867,516.433838 474.811493,516.875488 
	C474.577515,516.995850 474.192505,516.831421 473.648071,516.393555 
z"/>
<path fill="#FEC314" opacity="1.000000" stroke="none" 
	d="
M264.902893,482.760681 
	C265.022888,482.983795 264.574005,482.995361 264.349487,482.997253 
	C264.068268,482.835144 264.011566,482.671082 263.952454,482.246582 
	C264.227692,482.169983 264.505310,482.353790 264.902893,482.760681 
z"/>
<path fill="#FB4442" opacity="1.000000" stroke="none" 
	d="
M59.338081,242.096527 
	C59.247410,241.860992 59.431873,241.543411 59.883644,241.128571 
	C59.971706,241.359039 59.792461,241.686783 59.338081,242.096527 
z"/>
<path fill="#1169C7" opacity="1.000000" stroke="none" 
	d="
M499.714996,473.393768 
	C499.499664,473.187256 499.435791,472.924469 499.371918,472.661652 
	C499.510559,472.676422 499.649231,472.691162 499.906494,472.880890 
	C500.025085,473.055878 499.866455,473.337463 499.714996,473.393768 
z"/>
<path fill="#075FC4" opacity="1.000000" stroke="none" 
	d="
M536.203491,444.998016 
	C535.943970,444.815338 535.805359,444.591400 535.666748,444.367432 
	C535.812683,444.369232 535.958679,444.371033 536.263916,444.546936 
	C536.423279,444.721069 536.324402,444.956757 536.203491,444.998016 
z"/>
<path fill="#075FC4" opacity="1.000000" stroke="none" 
	d="
M536.658203,444.324615 
	C536.508850,444.016876 536.638062,443.663055 537.079834,443.291840 
	C537.240540,443.609131 537.088623,443.943848 536.658203,444.324615 
z"/>
<path fill="#FB4442" opacity="1.000000" stroke="none" 
	d="
M107.149261,65.558914 
	C106.880692,65.737480 106.555130,65.611504 106.114540,65.242142 
	C106.363762,65.083961 106.728027,65.169167 107.149261,65.558914 
z"/>
<path fill="#075FC4" opacity="1.000000" stroke="none" 
	d="
M537.336182,434.365662 
	C537.038269,434.511475 536.680969,434.380585 536.324585,433.935608 
	C536.642578,433.777344 536.959717,433.933167 537.336182,434.365662 
z"/>
<path fill="#FB4442" opacity="1.000000" stroke="none" 
	d="
M54.184372,180.120819 
	C54.275524,179.954178 54.548458,179.915604 54.813698,180.095825 
	C54.806000,180.314621 54.366154,180.248901 54.184372,180.120819 
z"/>
<path fill="#146BC7" opacity="1.000000" stroke="none" 
	d="
M431.976898,424.725769 
	C431.810120,425.001465 431.638000,424.999573 431.207825,424.988861 
	C431.083557,424.671783 431.268951,424.398529 431.716156,424.027496 
	C431.941467,424.079224 431.956543,424.263702 431.976898,424.725769 
z"/>
<path fill="#FB4442" opacity="1.000000" stroke="none" 
	d="
M108.131485,66.635239 
	C107.879478,66.740784 107.559174,66.557846 107.170868,66.095795 
	C107.422981,65.993378 107.743080,66.170067 108.131485,66.635239 
z"/>
<path fill="#FEC416" opacity="1.000000" stroke="none" 
	d="
M86.605598,322.254517 
	C86.704155,322.005737 86.896088,321.820831 87.088028,321.635925 
	C87.096771,321.820831 87.105522,322.005768 86.973785,322.345642 
	C86.833298,322.500580 86.698982,322.318420 86.605598,322.254517 
z"/>
</svg>